<?xml version="1.0"?><svg width="480" height="480" xmlns="http://www.w3.org/2000/svg">
 <title>magnifying glass clipart</title>
 <g>
  <title>Layer 1</title>
  <g id="Vrstva_x0020_1" stroke-miterlimit="4" stroke="#000000" fill="#0F238C" clip-rule="nonzero" fill-rule="nonzero">
   <g id="g3470" clip-rule="evenodd" fill-rule="evenodd">
    <path fill="#007f3f" d="m328.087402,256.780273c-5.591797,8.171875 -13.280273,17.080078 -22.191406,25.296875c-9.685547,8.931641 -20.244141,16.550781 -27.433594,20.463867l163.125977,150.447266l49.649414,-45.783203l-163.150391,-150.424805z" id="path3472"/>
    <path fill="#007f3f" d="m283.82959,45.058109c-65.175781,-60.07764 -169.791023,-60.07764 -234.966309,0c-65.150881,60.100582 -65.150881,156.570309 0,216.671383c65.175285,60.100586 169.790527,60.100586 234.966309,0c65.175781,-60.101074 65.175781,-156.570793 0,-216.671383zm-34.198242,31.535152c-46.204102,-42.606934 -120.390625,-42.606934 -166.570305,0c-46.204601,42.583496 -46.204601,110.994141 0,153.601074c46.17968,42.606445 120.366203,42.606445 166.570305,0c46.205078,-42.606934 46.205078,-111.017578 0,-153.601074z" id="path3474"/>
   </g>
  </g>
 </g>
</svg>
